# xmcd CD database file
#
# Track frame offsets:
#	150
#	14430
#	28867
#	40680
#	54007
#	68030
#	82525
#	96252
#	110372
#	123540
#	137510
#	152090
#	165357
#	179910
#	193080
#	206445
#	217952
#	229802
#	244595
#	255380
#
# Disc length: 3578 seconds
#
# Revision: 0
# Processed by: cddbd v1.5.2PL0 Copyright (c) Steve Scherf et al.
# Submitted via: CDex 1.51
#
DISCID=010df814
DTITLE=Dick Haymes - The Very Best Of Dick Haymes Volume 2
DYEAR=1997
DGENRE=Jazz
TTITLE0=It Might As Well Be Spring
TTITLE1=I'm Always Chasing Rainbows
TTITLE2=Slowly
TTITLE3=Oh, What It Seemed To Be
TTITLE4=In Love In Vain
TTITLE5=For You, For Me, For Evermore
TTITLE6=How Are Things In Glocca Morra
TTITLE7=Mam'selle
TTITLE8=Ivy
TTITLE9=I Wish I Didn't Love You So
TTITLE10=And Mimi
TTITLE11=Teresa
TTITLE12=Little White Lies
TTITLE13=You Can't Be True, Dear
TTITLE14=Nature Boy
TTITLE15=It's Magic
TTITLE16=Room Full Of Roses
TTITLE17=Maybe It's Because
TTITLE18=The Old Master Painter
TTITLE19=Count Every Star
EXTD=YEAR: 1997
EXTT0=
EXTT1=
EXTT2=
EXTT3=
EXTT4=
EXTT5=
EXTT6=
EXTT7=
EXTT8=
EXTT9=
EXTT10=
EXTT11=
EXTT12=
EXTT13=
EXTT14=
EXTT15=
EXTT16=
EXTT17=
EXTT18=
EXTT19=
PLAYORDER=
